<svg xmlns="http://www.w3.org/2000/svg" xmlns:xlink="http://www.w3.org/1999/xlink" width="800" zoomAndPan="magnify" viewBox="0 0 600 599.999999" height="800" preserveAspectRatio="xMidYMid meet" version="1.0"><defs><g/></defs><rect x="-60" width="720" fill="#ffffff" y="-60" height="719.999999" fill-opacity="1"/><rect x="-60" width="720" fill="#fffff6" y="-60" height="719.999999" fill-opacity="1"/><rect x="-60" width="720" fill="#ffffff" y="-60" height="719.999999" fill-opacity="1"/><rect x="-60" width="720" fill="#fffff6" y="-60" height="719.999999" fill-opacity="1"/><path fill="#025492" d="M 245.191406 355.34375 C 254.800781 362.601562 265.105469 374.304688 251.519531 404.734375 C 237.929688 435.164062 238.867188 467.464844 276.355469 479.402344 C 313.839844 491.339844 334.226562 454.589844 334.226562 454.589844 C 315.953125 455.527344 294.394531 451.785156 284.554688 425.097656 C 274.714844 398.414062 291.585938 380.625 270.496094 364.707031 C 281.742188 368.917969 288.304688 381.089844 289.472656 400.753906 C 290.644531 420.414062 300.019531 441.71875 329.070312 446.398438 C 358.125 451.082031 388.585938 461.847656 386.941406 482.683594 C 393.738281 464.425781 394.207031 443.824219 378.742188 424.863281 C 367.261719 433.289062 338.207031 429.546875 324.851562 407.773438 C 311.5 386.007812 307.984375 371.257812 293.691406 362.601562 C 309.859375 368.6875 320.402344 384.371094 328.835938 395.835938 C 337.269531 407.308594 346.175781 416.4375 368.90625 415.96875 C 354.140625 409.882812 334.460938 388.347656 335.164062 360.726562 C 311.96875 348.085938 270.496094 346.214844 245.191406 355.34375 Z M 186.148438 412.457031 C 175.75 446.988281 201.378906 466.53125 225.746094 476.828125 C 202.785156 463.957031 196.691406 434.460938 204.1875 418.542969 C 211.6875 402.625 217.074219 390.21875 217.308594 382.261719 C 217.308594 382.261719 222.699219 389.984375 216.140625 411.523438 C 209.578125 433.054688 211.921875 453.421875 227.621094 465.59375 C 218.011719 449.207031 218.71875 429.546875 237.460938 405.902344 C 256.207031 382.261719 248.007812 368.917969 240.972656 361.898438 C 243.320312 379.921875 227.855469 374.070312 219.890625 362.601562 C 211.921875 351.128906 197.394531 351.832031 187.085938 355.578125 C 217.074219 357.683594 194.820312 383.664062 186.148438 412.457031 Z M 421.753906 27.671875 C 427.328125 46.011719 439.457031 134.117188 351.59375 194.386719 C 383.066406 181.609375 441.753906 133.792969 458.144531 80.730469 C 456.179688 63.699219 427 31.929688 421.753906 27.671875 Z M 321.433594 227.136719 C 336.183594 231.070312 412.246094 262.183594 444.375 350.292969 C 440.113281 325.070312 457.164062 306.074219 469.621094 334.570312 C 482.078125 363.0625 481.425781 384.683594 513.222656 393.199219 C 497.160156 378.789062 492.238281 358.804688 494.535156 332.605469 C 496.832031 306.402344 488.960938 273.976562 466.015625 264.804688 C 473.226562 273.648438 477.160156 281.835938 468.964844 282.492188 C 460.765625 283.144531 443.0625 253.339844 470.277344 253.339844 C 454.210938 240.894531 391.59375 225.828125 350.285156 227.136719 C 401.753906 238.601562 448.964844 268.738281 448.964844 287.078125 C 448.964844 305.421875 421.425781 276.925781 402.738281 264.480469 C 384.050781 252.03125 347.660156 232.054688 321.433594 227.136719 Z M 421.425781 220.914062 C 448.605469 231.097656 491.257812 227.136719 496.832031 215.019531 C 447 232.707031 427 189.796875 445.359375 182.921875 C 463.71875 176.042969 490.273438 188.488281 493.878906 200.9375 C 542.730469 147.875 487.320312 65.335938 468.964844 53.21875 C 495.191406 136.738281 347.660156 211.414062 334.875 216.332031 C 355.203125 209.125 392.574219 210.105469 421.425781 220.914062 Z M 226.03125 124.945312 C 260.128906 122 277.503906 103.660156 278.8125 88.917969 C 275.535156 97.761719 258.8125 108.902344 256.195312 97.433594 C 253.566406 85.972656 263.40625 81.714844 300.777344 74.179688 C 338.152344 66.644531 358.480469 42.410156 357.824219 22.101562 C 349.300781 38.808594 318.484375 51.910156 289.632812 56.820312 C 260.78125 61.734375 230.621094 69.265625 227.339844 86.300781 C 227.339844 86.300781 241.4375 79.421875 241.4375 94.160156 C 241.4375 108.902344 211.929688 114.140625 208.980469 98.417969 C 206.03125 82.695312 217.832031 68.9375 244.71875 55.183594 C 271.601562 41.425781 282.417969 24.71875 276.847656 11.949219 C 276.519531 25.703125 257.832031 34.21875 216.523438 53.21875 C 175.214844 72.214844 158.820312 130.515625 164.722656 152.460938 C 168.65625 141.324219 191.933594 127.898438 226.03125 124.945312 Z M 294.546875 89.902344 C 315.859375 101.363281 345.695312 175.390625 305.371094 220.585938 C 337.167969 203.558594 394.871094 153.445312 411.589844 70.574219 C 401.753906 90.554688 384.707031 114.140625 360.773438 114.140625 C 336.84375 114.140625 356.839844 80.730469 371.59375 74.507812 C 386.347656 68.285156 390.28125 83.351562 375.855469 94.160156 C 397.824219 84.660156 420.117188 39.789062 394.214844 -7.375 C 396.183594 7.035156 366.675781 83.679688 294.546875 89.902344 Z M 316.191406 156.394531 C 310.613281 172.441406 295.863281 217.640625 243.734375 230.414062 C 273.894531 229.101562 423.394531 286.75 416.507812 423.984375 C 429.296875 407.285156 438.804688 378.789062 434.542969 357.167969 C 418.476562 314.917969 362.089844 254.324219 287.335938 221.570312 C 308.648438 204.210938 316.84375 174.40625 316.191406 156.394531 Z M 235.589844 242.0625 C 251.347656 249.03125 272.503906 267.023438 279.480469 295.585938 C 286.460938 324.144531 299.738281 343.9375 331.257812 347.082031 C 317.523438 341.234375 292.539062 314.027344 300.191406 283.890625 C 297.039062 278.714844 279.933594 260.5 274.082031 257.355469 C 312.796875 272.871094 339.34375 303.648438 333.28125 312.226562 C 327.878906 319.871094 313.921875 305.929688 311.671875 298.957031 C 308.746094 311.777344 327.699219 334.667969 347.914062 354.730469 C 382.804688 389.359375 401.484375 443.558594 401.484375 461.550781 C 406.210938 440.859375 412.066406 366.871094 378.078125 334.265625 C 383.476562 343.710938 385.503906 353.605469 378.75 357.199219 C 372 360.800781 362.546875 346.40625 354.441406 322.570312 C 346.335938 298.730469 318.425781 253.304688 235.589844 242.0625 Z M 191.46875 334.265625 C 195.296875 338.761719 183.363281 345.058594 179.988281 350.90625 C 179.988281 350.90625 195.746094 339.4375 224.105469 341.011719 C 252.46875 342.582031 279.03125 335.390625 283.085938 328.644531 C 275.203125 326.617188 270.476562 318.296875 268.902344 302.332031 C 267.328125 286.363281 257.195312 261.851562 232.886719 256.230469 C 279.03125 285.691406 248.417969 324.820312 219.605469 327.515625 C 200.332031 329.324219 200.921875 321.894531 203.171875 318.296875 C 153.429688 331.789062 156.351562 370.695312 156.351562 385.085938 C 159.730469 343.710938 187.640625 329.765625 191.46875 334.265625 Z M 124.613281 319.421875 C 125.289062 328.191406 130.015625 359.902344 148.703125 378.792969 C 139.019531 363.949219 134.96875 332.238281 137.21875 319.421875 C 151.402344 318.746094 163.332031 304.582031 162.433594 291.535156 C 160.628906 320.996094 117.414062 306.152344 116.285156 302.777344 C 116.960938 307.277344 118.984375 311.101562 124.613281 319.421875 Z M 60.234375 248.582031 C 61.585938 258.027344 78.246094 275.117188 89.722656 284.5625 C 89.949219 289.738281 94 307.5 103.453125 312.675781 C 92.875 270.847656 148.25 271.523438 152.976562 274.667969 C 144.199219 256.679688 114.035156 265.898438 104.355469 269.945312 C 94.675781 273.992188 88.824219 268.597656 87.472656 266.800781 C 86.121094 264.996094 82.070312 258.703125 75.320312 253.304688 C 68.566406 247.910156 69.015625 243.636719 73.742188 234.191406 C 73.742188 234.191406 64.738281 237.339844 60.234375 248.582031 Z M 126.867188 192.359375 C 126.867188 192.359375 119.664062 185.164062 121.914062 175.496094 C 130.015625 177.519531 153.429688 168.296875 170.535156 155.480469 C 187.640625 142.660156 205.648438 143.335938 210.601562 144.234375 C 215.554688 145.136719 224.511719 147.171875 227.933594 143.785156 C 247.742188 124.21875 293.441406 112.753906 305.242188 116.421875 C 311.671875 181.117188 265.007812 213.84375 252.324219 213.84375 C 289.867188 192.589844 288.839844 153.675781 287.945312 135.753906 C 283.203125 134.472656 266.800781 141.898438 253.730469 151.5 C 240.664062 161.101562 214.777344 169.035156 207.601562 170.191406 C 218.367188 155.980469 202.734375 155.597656 192.609375 169.804688 C 183.957031 181.953125 172.367188 187.859375 163.265625 190.289062 C 170.703125 195.410156 184.15625 191.566406 190.09375 189.050781 C 189.683594 191.914062 179.4375 204.195312 141.734375 206.652344 C 104.03125 209.109375 91.324219 219.757812 79.851562 231.21875 C 87.316406 209.808594 115.835938 195.285156 126.867188 192.359375 " fill-opacity="1" fill-rule="nonzero"/><g fill="#025492" fill-opacity="1"><g transform="translate(152.587515, 571.115396)"><g><path d="M 12.511719 -64.421875 C 3.816406 -59.0625 4.550781 -49.148438 4.628906 -42.164062 L 4.792969 -3.738281 L 0.488281 -1.136719 L 0.570312 0 C 15.191406 0 18.847656 -0.0820312 22.421875 0 L 22.421875 -1.136719 L 18.605469 -3.738281 L 18.523438 -45.65625 L 22.664062 -45.65625 L 22.664062 -47.28125 L 18.523438 -47.28125 C 12.429688 -47.199219 14.867188 -62.230469 15.4375 -64.421875 C 16.328125 -67.917969 22.992188 -49.394531 24.617188 -48.824219 C 24.695312 -49.070312 24.535156 -66.453125 24.617188 -66.777344 C 20.960938 -67.589844 16.816406 -67.023438 12.511719 -64.421875 Z M 12.511719 -64.421875 "/></g></g></g><g fill="#025492" fill-opacity="1"><g transform="translate(177.929714, 571.115396)"><g><path d="M 41.59375 -32.496094 C 40.539062 -45.980469 20.960938 -51.992188 9.261719 -42 C 4.792969 -38.265625 1.707031 -32.089844 1.707031 -23.070312 C 1.789062 2.679688 32.414062 8.773438 39.320312 -14.21875 L 38.34375 -14.625 C 32.902344 -6.988281 19.578125 -5.523438 17.140625 -19.417969 C 22.339844 -20.714844 38.671875 -30.464844 40.78125 -31.035156 C 41.351562 -31.195312 41.59375 -32.089844 41.59375 -32.496094 Z M 32.007812 -40.539062 C 31.035156 -37.371094 27.132812 -31.765625 16.898438 -21.449219 C 16.816406 -22.339844 16.734375 -23.316406 16.734375 -24.289062 C 16.734375 -33.390625 19.171875 -39.402344 22.015625 -42.570312 C 25.996094 -46.875 33.308594 -45.167969 32.007812 -40.539062 Z M 32.007812 -40.539062 "/></g></g></g><g fill="#025492" fill-opacity="1"><g transform="translate(221.466315, 571.115396)"><g><path d="M 22.257812 -1.136719 L 18.441406 -3.738281 C 18.441406 -3.738281 18.359375 -58.167969 18.441406 -60.523438 C 18.523438 -62.390625 17.386719 -63.285156 15.679688 -63.367188 C 14.542969 -63.367188 13.078125 -63.367188 11.453125 -63.367188 C 7.394531 -63.367188 0.894531 -63.285156 0.894531 -63.285156 L 0.894531 -62.148438 L 4.628906 -59.628906 L 4.628906 -3.738281 L 0.324219 -1.136719 L 0.324219 0 C 0.324219 0 4.386719 0 11.453125 0 C 18.441406 0 22.257812 0 22.257812 0 Z M 22.257812 -1.136719 "/></g></g></g><g fill="#025492" fill-opacity="1"><g transform="translate(244.128087, 571.115396)"><g><path d="M 34.285156 -45.65625 C 29.003906 -45.65625 24.046875 -43.625 21.203125 -39.320312 L 21.121094 -43.542969 C 21.203125 -45.332031 20.066406 -46.308594 18.441406 -46.308594 L 14.136719 -46.308594 C 10.15625 -46.308594 3.574219 -46.226562 3.574219 -46.226562 L 3.574219 -45.089844 L 7.3125 -42.570312 L 7.472656 11.859375 L 3.167969 14.460938 L 3.167969 15.597656 L 25.101562 15.597656 L 25.101562 14.460938 L 21.285156 11.859375 C 21.285156 11.859375 21.285156 6.5 21.285156 -0.324219 C 23.476562 0.894531 26.808594 1.300781 29.246094 1.300781 C 32.820312 1.300781 36.152344 0.488281 39.15625 -0.976562 C 47.28125 -5.035156 49.230469 -15.03125 49.230469 -24.128906 C 49.230469 -39.890625 41.839844 -45.65625 34.285156 -45.65625 Z M 29.410156 -3.574219 C 26.808594 -0.570312 22.746094 -1.136719 21.285156 -1.949219 C 21.285156 -3.007812 21.203125 -23.882812 21.203125 -36.234375 C 21.527344 -37.53125 22.179688 -38.589844 23.152344 -39.484375 C 31.277344 -46.875 33.226562 -33.144531 33.226562 -22.179688 C 33.226562 -16.734375 32.902344 -7.71875 29.410156 -3.574219 Z M 29.410156 -3.574219 "/></g></g></g><g fill="#025492" fill-opacity="1"><g transform="translate(295.299837, 571.115396)"><g><path d="M 66.859375 -1.136719 L 61.253906 -3.816406 L 40.703125 -55.324219 L 45.820312 -57.925781 L 45.902344 -59.0625 L 25.753906 -59.144531 C 13.160156 -14.054688 11.941406 -5.523438 1.542969 -1.21875 C 1.542969 -0.648438 1.542969 -0.40625 1.542969 -0.0820312 C 1.789062 -0.0820312 28.675781 -0.0820312 29.488281 -0.0820312 C 29.410156 -0.324219 29.570312 -0.648438 29.488281 -1.21875 C 22.828125 -1.625 20.230469 -9.585938 19.984375 -19.578125 L 39.078125 -19.578125 C 42.246094 -11.046875 44.84375 -3.980469 44.84375 -3.980469 L 40.863281 -1.136719 L 40.863281 0.0820312 L 66.859375 0 Z M 19.984375 -21.042969 C 19.984375 -30.628906 22.179688 -42.324219 25.101562 -52.886719 C 25.753906 -55.082031 25.996094 -55.324219 26.808594 -52.5625 C 26.972656 -52.074219 33.390625 -34.769531 38.507812 -21.042969 Z M 19.984375 -21.042969 "/></g></g></g><g fill="#025492" fill-opacity="1"><g transform="translate(363.772527, 571.115396)"><g><path d="M 34.285156 -45.65625 C 29.003906 -45.65625 24.046875 -43.625 21.203125 -39.320312 L 21.121094 -43.542969 C 21.203125 -45.332031 20.066406 -46.308594 18.441406 -46.308594 L 14.136719 -46.308594 C 10.15625 -46.308594 3.574219 -46.226562 3.574219 -46.226562 L 3.574219 -45.089844 L 7.3125 -42.570312 L 7.472656 11.859375 L 3.167969 14.460938 L 3.167969 15.597656 L 25.101562 15.597656 L 25.101562 14.460938 L 21.285156 11.859375 C 21.285156 11.859375 21.285156 6.5 21.285156 -0.324219 C 23.476562 0.894531 26.808594 1.300781 29.246094 1.300781 C 32.820312 1.300781 36.152344 0.488281 39.15625 -0.976562 C 47.28125 -5.035156 49.230469 -15.03125 49.230469 -24.128906 C 49.230469 -39.890625 41.839844 -45.65625 34.285156 -45.65625 Z M 29.410156 -3.574219 C 26.808594 -0.570312 22.746094 -1.136719 21.285156 -1.949219 C 21.285156 -3.007812 21.203125 -23.882812 21.203125 -36.234375 C 21.527344 -37.53125 22.179688 -38.589844 23.152344 -39.484375 C 31.277344 -46.875 33.226562 -33.144531 33.226562 -22.179688 C 33.226562 -16.734375 32.902344 -7.71875 29.410156 -3.574219 Z M 29.410156 -3.574219 "/></g></g></g><g fill="#025492" fill-opacity="1"><g transform="translate(414.944277, 571.115396)"><g><path d="M 34.285156 -45.65625 C 29.003906 -45.65625 24.046875 -43.625 21.203125 -39.320312 L 21.121094 -43.542969 C 21.203125 -45.332031 20.066406 -46.308594 18.441406 -46.308594 L 14.136719 -46.308594 C 10.15625 -46.308594 3.574219 -46.226562 3.574219 -46.226562 L 3.574219 -45.089844 L 7.3125 -42.570312 L 7.472656 11.859375 L 3.167969 14.460938 L 3.167969 15.597656 L 25.101562 15.597656 L 25.101562 14.460938 L 21.285156 11.859375 C 21.285156 11.859375 21.285156 6.5 21.285156 -0.324219 C 23.476562 0.894531 26.808594 1.300781 29.246094 1.300781 C 32.820312 1.300781 36.152344 0.488281 39.15625 -0.976562 C 47.28125 -5.035156 49.230469 -15.03125 49.230469 -24.128906 C 49.230469 -39.890625 41.839844 -45.65625 34.285156 -45.65625 Z M 29.410156 -3.574219 C 26.808594 -0.570312 22.746094 -1.136719 21.285156 -1.949219 C 21.285156 -3.007812 21.203125 -23.882812 21.203125 -36.234375 C 21.527344 -37.53125 22.179688 -38.589844 23.152344 -39.484375 C 31.277344 -46.875 33.226562 -33.144531 33.226562 -22.179688 C 33.226562 -16.734375 32.902344 -7.71875 29.410156 -3.574219 Z M 29.410156 -3.574219 "/></g></g></g></svg>